<?xml version="1.0" encoding="UTF-8"?>
<svg version="1.1" xmlns="http://www.w3.org/2000/svg" width="508" height="110">
<path d="M0 0 C167.64 0 335.28 0 508 0 C508 36.3 508 72.6 508 110 C340.36 110 172.72 110 0 110 C0 73.7 0 37.4 0 0 Z " fill="#FDFDFD" transform="translate(0,0)"/>
<path d="M0 0 C6.59435804 4.41060548 10.65505356 10.65256085 12.79296875 18.19921875 C13.84073388 27.40852282 13.08101744 35.42627681 7.79296875 43.19921875 C2.47392474 49.17336561 -2.4175846 52.66012227 -10.50390625 53.5703125 C-19.49185792 53.74315772 -26.20290128 52.67212473 -33.046875 46.5546875 C-38.55767186 40.58578039 -40.75224555 34.40113058 -40.58203125 26.32421875 C-40.57115479 25.62167969 -40.56027832 24.91914062 -40.54907227 24.1953125 C-40.27813273 15.34530271 -38.31988064 9.34732961 -32.1328125 2.9296875 C-23.46038783 -4.86318091 -10.24663622 -5.47897059 0 0 Z " fill="#050505" transform="translate(312.20703125,29.80078125)"/>
<path d="M0 0 C5.65125 -0.0825 11.3025 -0.165 17.125 -0.25 C18.89762207 -0.28641602 20.67024414 -0.32283203 22.49658203 -0.36035156 C23.9169799 -0.37204468 25.33739128 -0.38223503 26.7578125 -0.390625 C27.48282959 -0.41108887 28.20784668 -0.43155273 28.95483398 -0.45263672 C34.14400636 -0.45617037 36.9978993 0.74815404 41 4 C44.93934787 8.35401607 45.62066304 11.91381071 45.3984375 17.59765625 C44.81747763 21.10050253 43.23899462 23.3000359 41 26 C40.34 26.99 39.68 27.98 39 29 C39.639375 29.61875 40.27875 30.2375 40.9375 30.875 C43.71442539 33.73607464 44.14883487 35.48834869 44.53515625 39.3515625 C44.66567383 40.62773438 44.66567383 40.62773438 44.79882812 41.9296875 C44.9293457 43.26386719 44.9293457 43.26386719 45.0625 44.625 C45.15337891 45.5221875 45.24425781 46.419375 45.33789062 47.34375 C45.56209056 49.56214938 45.78149744 51.78103221 46 54 C42.04 54 38.08 54 34 54 C32.2642323 50.5284646 32.33766885 46.34596599 32.01367188 42.49804688 C31.68208345 39.50201336 31.3511171 37.42617162 29.41015625 35.0703125 C26.07213981 33.58795187 22.84283817 33.43228712 19.25 33.3125 C16.8575 33.209375 14.465 33.10625 12 33 C12 39.93 12 46.86 12 54 C8.04 54 4.08 54 0 54 C0 36.18 0 18.36 0 0 Z " fill="#030303" transform="translate(332,28)"/>
<path d="M0 0 C5.65125 -0.0825 11.3025 -0.165 17.125 -0.25 C18.89762207 -0.28641602 20.67024414 -0.32283203 22.49658203 -0.36035156 C23.9169799 -0.37204468 25.33739128 -0.38223503 26.7578125 -0.390625 C27.48282959 -0.41108887 28.20784668 -0.43155273 28.95483398 -0.45263672 C34.14400636 -0.45617037 36.9978993 0.74815404 41 4 C44.93934787 8.35401607 45.62066304 11.91381071 45.3984375 17.59765625 C44.81747763 21.10050253 43.23899462 23.3000359 41 26 C40.34 26.99 39.68 27.98 39 29 C39.639375 29.61875 40.27875 30.2375 40.9375 30.875 C43.71442539 33.73607464 44.14883487 35.48834869 44.53515625 39.3515625 C44.66567383 40.62773438 44.66567383 40.62773438 44.79882812 41.9296875 C44.9293457 43.26386719 44.9293457 43.26386719 45.0625 44.625 C45.15337891 45.5221875 45.24425781 46.419375 45.33789062 47.34375 C45.56209056 49.56214938 45.78149744 51.78103221 46 54 C42.04 54 38.08 54 34 54 C32.2642323 50.5284646 32.33766885 46.34596599 32.01367188 42.49804688 C31.68208345 39.50201336 31.3511171 37.42617162 29.41015625 35.0703125 C26.07213981 33.58795187 22.84283817 33.43228712 19.25 33.3125 C16.8575 33.209375 14.465 33.10625 12 33 C12 39.93 12 46.86 12 54 C8.04 54 4.08 54 0 54 C0 36.18 0 18.36 0 0 Z " fill="#030303" transform="translate(81,28)"/>
<path d="M0 0 C4.62 0 9.24 0 14 0 C16.71213877 7.2059219 19.41788531 14.4141984 22.11767578 21.62475586 C23.03746022 24.0785432 23.95900339 26.53167202 24.88232422 28.98413086 C26.20740742 32.50463924 27.52619554 36.02744946 28.84375 39.55078125 C29.46715271 41.20089958 29.46715271 41.20089958 30.10314941 42.88435364 C30.4835437 43.90518539 30.86393799 44.92601715 31.25585938 45.9777832 C31.59339233 46.87713089 31.93092529 47.77647858 32.27868652 48.70307922 C33 51 33 51 33 54 C28.71 54 24.42 54 20 54 C17 45.375 17 45.375 17 42 C7.1 42.495 7.1 42.495 -3 43 C-4.32 46.63 -5.64 50.26 -7 54 C-11.29 54 -15.58 54 -20 54 C-17.88347106 47.53972632 -15.61907492 41.15380298 -13.2421875 34.78515625 C-12.8936673 33.84820419 -12.54514709 32.91125214 -12.18606567 31.94590759 C-11.45567547 29.9834383 -10.72453578 28.02124781 -9.99267578 26.05932617 C-8.86939191 23.04746303 -7.74898516 20.03454068 -6.62890625 17.02148438 C-5.91683597 15.10931194 -5.20460228 13.19720036 -4.4921875 11.28515625 C-4.15677948 10.3831398 -3.82137146 9.48112335 -3.47579956 8.55177307 C-3.16522614 7.72008102 -2.85465271 6.88838898 -2.53466797 6.03149414 C-2.12521439 4.93303917 -2.12521439 4.93303917 -1.70748901 3.81239319 C-1 2 -1 2 0 0 Z " fill="#040404" transform="translate(421,28)"/>
<path d="M0 0 C4.62 0 9.24 0 14 0 C16.71213877 7.2059219 19.41788531 14.4141984 22.11767578 21.62475586 C23.03746022 24.0785432 23.95900339 26.53167202 24.88232422 28.98413086 C26.20740742 32.50463924 27.52619554 36.02744946 28.84375 39.55078125 C29.46715271 41.20089958 29.46715271 41.20089958 30.10314941 42.88435364 C30.4835437 43.90518539 30.86393799 44.92601715 31.25585938 45.9777832 C31.59339233 46.87713089 31.93092529 47.77647858 32.27868652 48.70307922 C33 51 33 51 33 54 C28.71 54 24.42 54 20 54 C17 45.375 17 45.375 17 42 C7.1 42.495 7.1 42.495 -3 43 C-4.32 46.63 -5.64 50.26 -7 54 C-11.29 54 -15.58 54 -20 54 C-17.88347106 47.53972632 -15.61907492 41.15380298 -13.2421875 34.78515625 C-12.8936673 33.84820419 -12.54514709 32.91125214 -12.18606567 31.94590759 C-11.45567547 29.9834383 -10.72453578 28.02124781 -9.99267578 26.05932617 C-8.86939191 23.04746303 -7.74898516 20.03454068 -6.62890625 17.02148438 C-5.91683597 15.10931194 -5.20460228 13.19720036 -4.4921875 11.28515625 C-4.15677948 10.3831398 -3.82137146 9.48112335 -3.47579956 8.55177307 C-3.16522614 7.72008102 -2.85465271 6.88838898 -2.53466797 6.03149414 C-2.12521439 4.93303917 -2.12521439 4.93303917 -1.70748901 3.81239319 C-1 2 -1 2 0 0 Z " fill="#040404" transform="translate(198,28)"/>
<path d="M0 0 C13.2 0 26.4 0 40 0 C40 3.3 40 6.6 40 10 C30.76 10 21.52 10 12 10 C12 13.63 12 17.26 12 21 C20.58 21 29.16 21 38 21 C38 24.3 38 27.6 38 31 C29.42 31 20.84 31 12 31 C12 34.96 12 38.92 12 43 C21.57 43 31.14 43 41 43 C41 46.63 41 50.26 41 54 C27.47 54 13.94 54 0 54 C0 36.18 0 18.36 0 0 Z " fill="#030303" transform="translate(135,28)"/>
<path d="M0 0 C4.59622008 2.86122309 8.48937723 7.23710857 10.3125 12.375 C10.33981873 14.04144276 10.34259909 15.70860514 10.3125 17.375 C8.37690687 17.51004138 6.438628 17.60701129 4.5 17.6875 C3.42105469 17.74550781 2.34210938 17.80351563 1.23046875 17.86328125 C-1.6875 17.375 -1.6875 17.375 -3.46875 14.96875 C-3.8709375 14.1128125 -4.273125 13.256875 -4.6875 12.375 C-7.30022312 9.56874184 -8.66718242 9.37729392 -12.5625 8.9375 C-16.8534538 9.10561573 -19.40768157 10.56372706 -22.6875 13.375 C-26.14460344 18.809324 -26.38514982 26.6716422 -25.21875 32.86328125 C-23.57439545 37.60867401 -21.20913171 41.11418414 -16.6875 43.375 C-12.58981801 43.76900788 -10.17397243 43.60888098 -6.4375 41.8125 C-3.05409799 38.81357549 -2.14995727 36.59987655 -0.6875 32.375 C3.2725 32.375 7.2325 32.375 11.3125 32.375 C10.29343825 39.13786432 9.29997852 44.46585883 4.3125 49.375 C-3.04504459 54.78592965 -10.80520788 55.26425134 -19.6875 54.375 C-26.50888723 52.29973485 -31.93496213 48.47725784 -35.6875 42.375 C-38.24691341 37.31725703 -39.18273317 33.20523576 -39.0625 27.5 C-39.05162354 26.79746094 -39.04074707 26.09492187 -39.02954102 25.37109375 C-38.75866736 16.52323586 -36.80303358 10.51667319 -30.609375 4.10546875 C-22.72891503 -2.99014866 -9.76615591 -4.42732401 0 0 Z " fill="#040404" transform="translate(62.6875,28.625)"/>
<path d="M0 0 C14.52 0 29.04 0 44 0 C44 3.3 44 6.6 44 10 C38.72 10 33.44 10 28 10 C28 24.52 28 39.04 28 54 C24.04 54 20.08 54 16 54 C16 39.48 16 24.96 16 10 C10.72 10 5.44 10 0 10 C0 6.7 0 3.4 0 0 Z " fill="#000000" transform="translate(224,28)"/>
<path d="M0 0 C5.10209922 2.69544864 8.17381037 5.5214311 10 11 C11.13311551 25.7862286 11.13311551 25.7862286 6 32 C2.12010268 35.4389999 -0.95616881 36.67459835 -6.04296875 36.3828125 C-9.42748526 35.72077135 -11.44480429 34.25807993 -14 32 C-18.59329798 24.3972999 -18.38444448 17.62863073 -17 9 C-15.68235863 5.51251141 -13.61226938 3.51022449 -10.75 1.125 C-7.10441212 -0.36637686 -3.84486501 -0.68604454 0 0 Z " fill="#F9F9F9" transform="translate(302,37)"/>
<path d="M0 0 C3.96 0 7.92 0 12 0 C12 17.82 12 35.64 12 54 C8.04 54 4.08 54 0 54 C0 36.18 0 18.36 0 0 Z " fill="#000000" transform="translate(459,28)"/>
<path d="M0 0 C2.77141717 -0.08089542 5.54047819 -0.14044062 8.3125 -0.1875 C9.09818359 -0.21263672 9.88386719 -0.23777344 10.69335938 -0.26367188 C11.45068359 -0.27333984 12.20800781 -0.28300781 12.98828125 -0.29296875 C14.03302612 -0.31653442 14.03302612 -0.31653442 15.09887695 -0.34057617 C17.58103518 0.10408939 18.45193026 1.05267717 20 3 C20.3984375 4.9375 20.3984375 4.9375 20.375 7 C20.38273437 7.680625 20.39046875 8.36125 20.3984375 9.0625 C19.87852044 11.59072413 18.99130429 12.38785762 17 14 C15.09887695 14.34057617 15.09887695 14.34057617 12.98828125 14.29296875 C12.23095703 14.28330078 11.47363281 14.27363281 10.69335938 14.26367188 C9.51483398 14.2259668 9.51483398 14.2259668 8.3125 14.1875 C7.11657227 14.16719727 7.11657227 14.16719727 5.89648438 14.14648438 C3.93070033 14.11117089 1.96526418 14.05736447 0 14 C0 9.38 0 4.76 0 0 Z " fill="#F9F9F9" transform="translate(344,38)"/>
<path d="M0 0 C2.77141717 -0.08089542 5.54047819 -0.14044062 8.3125 -0.1875 C9.09818359 -0.21263672 9.88386719 -0.23777344 10.69335938 -0.26367188 C11.45068359 -0.27333984 12.20800781 -0.28300781 12.98828125 -0.29296875 C14.03302612 -0.31653442 14.03302612 -0.31653442 15.09887695 -0.34057617 C17.58103518 0.10408939 18.45193026 1.05267717 20 3 C20.3984375 4.9375 20.3984375 4.9375 20.375 7 C20.38273437 7.680625 20.39046875 8.36125 20.3984375 9.0625 C19.87852044 11.59072413 18.99130429 12.38785762 17 14 C15.09887695 14.34057617 15.09887695 14.34057617 12.98828125 14.29296875 C12.23095703 14.28330078 11.47363281 14.27363281 10.69335938 14.26367188 C9.51483398 14.2259668 9.51483398 14.2259668 8.3125 14.1875 C7.11657227 14.16719727 7.11657227 14.16719727 5.89648438 14.14648438 C3.93070033 14.11117089 1.96526418 14.05736447 0 14 C0 9.38 0 4.76 0 0 Z " fill="#F9F9F9" transform="translate(93,38)"/>
<path d="M0 0 C2 1 2 1 3.2890625 4.30859375 C3.74210268 5.68237148 4.18708349 7.05882681 4.625 8.4375 C4.85445313 9.13166016 5.08390625 9.82582031 5.3203125 10.54101562 C7 15.70505487 7 15.70505487 7 18 C2.71 18 -1.58 18 -6 18 C-4.2177429 11.88940424 -2.30678315 5.9317281 0 0 Z " fill="#E8E8E8" transform="translate(427,43)"/>
<path d="M0 0 C2 1 2 1 3.2890625 4.30859375 C3.74210268 5.68237148 4.18708349 7.05882681 4.625 8.4375 C4.85445312 9.13166016 5.08390625 9.82582031 5.3203125 10.54101562 C7 15.70505487 7 15.70505487 7 18 C2.71 18 -1.58 18 -6 18 C-4.2177429 11.88940424 -2.30678315 5.9317281 0 0 Z " fill="#E8E8E8" transform="translate(204,43)"/>
</svg>
